<svg width="44" height="44" viewBox="0 0 44 44" fill="none" xmlns="http://www.w3.org/2000/svg">
<rect width="43.8462" height="43.8462" rx="21.9231" fill="white"/>
<path d="M12.3616 25V17.3H15.5296C16.2116 17.3 16.7946 17.41 17.2786 17.63C17.7699 17.85 18.1476 18.1653 18.4116 18.576C18.6756 18.9867 18.8076 19.4743 18.8076 20.039C18.8076 20.6037 18.6756 21.0913 18.4116 21.502C18.1476 21.9127 17.7699 22.228 17.2786 22.448C16.7946 22.668 16.2116 22.778 15.5296 22.778H13.1536L13.7916 22.107V25H12.3616ZM13.7916 22.261L13.1536 21.568H15.4636C16.0942 21.568 16.5672 21.436 16.8826 21.172C17.2052 20.9007 17.3666 20.523 17.3666 20.039C17.3666 19.5477 17.2052 19.17 16.8826 18.906C16.5672 18.642 16.0942 18.51 15.4636 18.51H13.1536L13.7916 17.806V22.261ZM23.0081 25.077C22.4435 25.077 21.9338 24.9523 21.4791 24.703C21.0318 24.4463 20.6798 24.0943 20.4231 23.647C20.1665 23.1997 20.0381 22.6717 20.0381 22.063C20.0381 21.4543 20.1665 20.9263 20.4231 20.479C20.6798 20.0317 21.0318 19.6833 21.4791 19.434C21.9338 19.1847 22.4435 19.06 23.0081 19.06C23.4995 19.06 23.9395 19.17 24.3281 19.39C24.7168 19.6027 25.0248 19.929 25.2521 20.369C25.4795 20.809 25.5931 21.3737 25.5931 22.063C25.5931 22.745 25.4831 23.3097 25.2631 23.757C25.0431 24.197 24.7388 24.527 24.3501 24.747C23.9615 24.967 23.5141 25.077 23.0081 25.077ZM23.1731 23.9C23.5031 23.9 23.7965 23.8267 24.0531 23.68C24.3171 23.5333 24.5261 23.3207 24.6801 23.042C24.8415 22.7633 24.9221 22.437 24.9221 22.063C24.9221 21.6817 24.8415 21.3553 24.6801 21.084C24.5261 20.8053 24.3171 20.5927 24.0531 20.446C23.7965 20.2993 23.5031 20.226 23.1731 20.226C22.8431 20.226 22.5461 20.2993 22.2821 20.446C22.0255 20.5927 21.8165 20.8053 21.6551 21.084C21.5011 21.3553 21.4241 21.6817 21.4241 22.063C21.4241 22.437 21.5011 22.7633 21.6551 23.042C21.8165 23.3207 22.0255 23.5333 22.2821 23.68C22.5461 23.8267 22.8431 23.9 23.1731 23.9ZM24.9551 25V23.614L25.0101 22.052L24.9001 20.49V16.838H26.2641V25H24.9551ZM28.7009 25V18.796C28.7009 18.18 28.8805 17.6887 29.2399 17.322C29.6065 16.948 30.1272 16.761 30.8019 16.761C31.0439 16.761 31.2712 16.7867 31.4839 16.838C31.7039 16.8893 31.8872 16.97 32.0339 17.08L31.6599 18.114C31.5572 18.0333 31.4399 17.9747 31.3079 17.938C31.1759 17.894 31.0402 17.872 30.9009 17.872C30.6149 17.872 30.3985 17.9527 30.2519 18.114C30.1052 18.268 30.0319 18.5027 30.0319 18.818V19.478L30.0759 20.094V25H28.7009ZM27.7329 20.27V19.17H31.6489V20.27H27.7329Z" fill="#12C868"/>
</svg>
